<?xml version="1.0" encoding="UTF-8" standalone="no"?>
<!DOCTYPE svg PUBLIC "-//W3C//DTD SVG 1.1//EN" "http://www.w3.org/Graphics/SVG/1.1/DTD/svg11.dtd">
<svg width="100%" height="100%" viewBox="0 0 50 50" version="1.1" xmlns="http://www.w3.org/2000/svg" xmlns:xlink="http://www.w3.org/1999/xlink" xml:space="preserve" xmlns:serif="http://www.serif.com/" style="fill-rule:evenodd;clip-rule:evenodd;stroke-linejoin:round;stroke-miterlimit:2;">
    <g transform="matrix(0.0863508,0,0,0.0863508,0.1,1.49508)">
        <path d="M568.9,143.5L418,5.3C404.8,-6.773 384,3.039 384,21.84L384,96C241.2,97.63 128,126.1 128,260.6C128,314.9 163.2,368.7 202.08,396.8C214.22,405.581 231.5,394.562 227.02,380.34C186.7,252.2 256,224 384,223.1L384,297.3C384,316.12 404.84,325.89 418.02,313.81L568.92,175.61C578.4,167.8 578.4,152.2 568.9,143.5ZM416,384C398.33,384 384,398.33 384,416L384,447.1L64,447.099L64,128L96,128C113.67,128 128,113.68 128,96C128,78.32 113.7,64 96,64L64,64C28.65,64 0,92.65 0,128L0,447.1C0,482.44 28.65,511.1 64,511.1L384,511.099C419.35,511.099 448,482.439 448,447.099L448,416C448,398.3 433.7,384 416,384Z" style="fill-rule:nonzero;"/>
    </g>
</svg>
