<?xml version="1.0" encoding="UTF-8" standalone="no"?>
<!DOCTYPE svg PUBLIC "-//W3C//DTD SVG 1.1//EN" "http://www.w3.org/Graphics/SVG/1.1/DTD/svg11.dtd">
<svg width="100%" height="100%" viewBox="0 0 50 50" version="1.1" xmlns="http://www.w3.org/2000/svg" xmlns:xlink="http://www.w3.org/1999/xlink" xml:space="preserve" xmlns:serif="http://www.serif.com/" style="fill-rule:evenodd;clip-rule:evenodd;stroke-linejoin:round;stroke-miterlimit:2;">
    <g transform="matrix(0.0864435,0,0,0.0864435,-5.11855e-08,1.50624)">
        <path d="M96.185,64.001L96,64L64,64C28.65,64 0,92.65 0,128L0,447.1C0,482.44 28.65,511.1 64,511.1L351.815,511.099L352,511.1L384,511.1C419.35,511.1 448,482.45 448,447.1L448,128C448,92.66 419.35,64 384,64L96.185,64.001ZM64,128L64,447.099L384,447.1L384,128.001L64,128Z"/>
    </g>
</svg>
